<mxfile modified="2023-01-31T18:18:28.692Z" host="app.diagrams.net" agent="5.0 (Windows NT 10.0; Win64; x64) AppleWebKit/537.36 (KHTML, like Gecko) Chrome/109.0.0.0 Safari/537.36" etag="47ZpHKDsiuSKXxyOfhFF" version="20.8.13" type="github">
  <diagram id="Ht1M8jgEwFfnCIfOTk4-" name="Page-1">
    <mxGraphModel dx="1434" dy="1591" grid="1" gridSize="10" guides="1" tooltips="1" connect="1" arrows="1" fold="1" page="1" pageScale="1" pageWidth="1169" pageHeight="827" math="0" shadow="0">
      <root>
        <mxCell id="0" />
        <mxCell id="1" parent="0" />
        <mxCell id="wQ1obBXAaNG1iILkcRS5-5" value="AWS Cloud" style="points=[[0,0],[0.25,0],[0.5,0],[0.75,0],[1,0],[1,0.25],[1,0.5],[1,0.75],[1,1],[0.75,1],[0.5,1],[0.25,1],[0,1],[0,0.75],[0,0.5],[0,0.25]];outlineConnect=0;gradientColor=none;html=1;whiteSpace=wrap;fontSize=12;fontStyle=0;container=1;pointerEvents=0;collapsible=0;recursiveResize=0;shape=mxgraph.aws4.group;grIcon=mxgraph.aws4.group_aws_cloud_alt;strokeColor=#232F3E;fillColor=none;verticalAlign=top;align=left;spacingLeft=30;fontColor=#232F3E;dashed=0;" parent="1" vertex="1">
          <mxGeometry x="160" y="-10" width="870" height="810" as="geometry" />
        </mxCell>
        <mxCell id="wQ1obBXAaNG1iILkcRS5-6" value="VPC" style="sketch=0;outlineConnect=0;gradientColor=none;html=1;whiteSpace=wrap;fontSize=12;fontStyle=0;shape=mxgraph.aws4.group;grIcon=mxgraph.aws4.group_vpc;strokeColor=#879196;fillColor=none;verticalAlign=top;align=left;spacingLeft=30;fontColor=#879196;dashed=0;" parent="wQ1obBXAaNG1iILkcRS5-5" vertex="1">
          <mxGeometry x="50" y="30" width="800" height="750" as="geometry" />
        </mxCell>
        <mxCell id="UEzPUAAOIrF-is8g5C7q-121" value="Logs" style="outlineConnect=0;fontColor=#232F3E;gradientColor=#F34482;gradientDirection=north;fillColor=#BC1356;strokeColor=#ffffff;dashed=0;verticalLabelPosition=bottom;verticalAlign=top;align=center;html=1;fontSize=12;fontStyle=0;aspect=fixed;shape=mxgraph.aws4.resourceIcon;resIcon=mxgraph.aws4.cloudwatch;labelBackgroundColor=#ffffff;" parent="wQ1obBXAaNG1iILkcRS5-5" vertex="1">
          <mxGeometry x="700.0000000000002" y="260" width="78" height="78" as="geometry" />
        </mxCell>
        <mxCell id="qfB8jvTzvEuYYU5wCv9F-1" style="edgeStyle=orthogonalEdgeStyle;rounded=0;orthogonalLoop=1;jettySize=auto;html=1;" parent="wQ1obBXAaNG1iILkcRS5-5" source="UEzPUAAOIrF-is8g5C7q-113" target="UEzPUAAOIrF-is8g5C7q-121" edge="1">
          <mxGeometry relative="1" as="geometry" />
        </mxCell>
        <mxCell id="UEzPUAAOIrF-is8g5C7q-113" value="API Function" style="outlineConnect=0;fontColor=#232F3E;gradientColor=#F78E04;gradientDirection=north;fillColor=#D05C17;strokeColor=#ffffff;dashed=0;verticalLabelPosition=bottom;verticalAlign=top;align=center;html=1;fontSize=12;fontStyle=0;aspect=fixed;shape=mxgraph.aws4.resourceIcon;resIcon=mxgraph.aws4.lambda;labelBackgroundColor=#ffffff;spacingTop=3;" parent="wQ1obBXAaNG1iILkcRS5-5" vertex="1">
          <mxGeometry x="700" y="469.5" width="78" height="78" as="geometry" />
        </mxCell>
        <mxCell id="wQ1obBXAaNG1iILkcRS5-20" style="edgeStyle=orthogonalEdgeStyle;rounded=0;orthogonalLoop=1;jettySize=auto;html=1;startArrow=none;startFill=0;" parent="wQ1obBXAaNG1iILkcRS5-5" source="wQ1obBXAaNG1iILkcRS5-17" target="wQ1obBXAaNG1iILkcRS5-19" edge="1">
          <mxGeometry relative="1" as="geometry" />
        </mxCell>
        <mxCell id="d6P8CkWaliifGmY5b4Fr-5" style="edgeStyle=orthogonalEdgeStyle;rounded=0;orthogonalLoop=1;jettySize=auto;html=1;" edge="1" parent="wQ1obBXAaNG1iILkcRS5-5" source="wQ1obBXAaNG1iILkcRS5-17" target="d6P8CkWaliifGmY5b4Fr-4">
          <mxGeometry relative="1" as="geometry" />
        </mxCell>
        <mxCell id="wQ1obBXAaNG1iILkcRS5-17" value="aMentors" style="shape=image;html=1;verticalAlign=top;verticalLabelPosition=bottom;labelBackgroundColor=#ffffff;imageAspect=0;aspect=fixed;image=https://cdn1.iconfinder.com/data/icons/seo-and-web-development-6/32/Web_website_favorite_site_star-128.png" parent="wQ1obBXAaNG1iILkcRS5-5" vertex="1">
          <mxGeometry x="330" y="445" width="128" height="128" as="geometry" />
        </mxCell>
        <mxCell id="wQ1obBXAaNG1iILkcRS5-19" value="aMentors app" style="outlineConnect=0;fontColor=#232F3E;gradientColor=#60A337;gradientDirection=north;fillColor=#277116;strokeColor=#ffffff;dashed=0;verticalLabelPosition=bottom;verticalAlign=top;align=center;html=1;fontSize=12;fontStyle=0;aspect=fixed;shape=mxgraph.aws4.resourceIcon;resIcon=mxgraph.aws4.s3;labelBackgroundColor=#ffffff;" parent="wQ1obBXAaNG1iILkcRS5-5" vertex="1">
          <mxGeometry x="355.0000000000002" y="660" width="78" height="78" as="geometry" />
        </mxCell>
        <mxCell id="qfB8jvTzvEuYYU5wCv9F-3" style="edgeStyle=orthogonalEdgeStyle;rounded=0;orthogonalLoop=1;jettySize=auto;html=1;" parent="wQ1obBXAaNG1iILkcRS5-5" source="qfB8jvTzvEuYYU5wCv9F-2" target="wQ1obBXAaNG1iILkcRS5-17" edge="1">
          <mxGeometry relative="1" as="geometry" />
        </mxCell>
        <mxCell id="qfB8jvTzvEuYYU5wCv9F-2" value="" style="outlineConnect=0;dashed=0;verticalLabelPosition=bottom;verticalAlign=top;align=center;html=1;shape=mxgraph.aws3.cloudfront;fillColor=#F58536;gradientColor=none;" parent="wQ1obBXAaNG1iILkcRS5-5" vertex="1">
          <mxGeometry x="160" y="462.5" width="76.5" height="93" as="geometry" />
        </mxCell>
        <mxCell id="UEzPUAAOIrF-is8g5C7q-119" value="Activities DB" style="outlineConnect=0;fontColor=#232F3E;gradientColor=#4D72F3;gradientDirection=north;fillColor=#3334B9;strokeColor=#ffffff;dashed=0;verticalLabelPosition=bottom;verticalAlign=top;align=center;html=1;fontSize=12;fontStyle=0;aspect=fixed;shape=mxgraph.aws4.resourceIcon;resIcon=mxgraph.aws4.dynamodb;labelBackgroundColor=#ffffff;spacingTop=5;" parent="wQ1obBXAaNG1iILkcRS5-5" vertex="1">
          <mxGeometry x="720.0000000000002" y="80" width="78" height="78" as="geometry" />
        </mxCell>
        <mxCell id="wQ1obBXAaNG1iILkcRS5-12" style="edgeStyle=orthogonalEdgeStyle;rounded=0;orthogonalLoop=1;jettySize=auto;html=1;" parent="wQ1obBXAaNG1iILkcRS5-5" source="UEzPUAAOIrF-is8g5C7q-119" target="UEzPUAAOIrF-is8g5C7q-121" edge="1">
          <mxGeometry relative="1" as="geometry">
            <Array as="points">
              <mxPoint x="810" y="119" />
              <mxPoint x="810" y="299" />
            </Array>
          </mxGeometry>
        </mxCell>
        <mxCell id="d6P8CkWaliifGmY5b4Fr-3" style="edgeStyle=orthogonalEdgeStyle;rounded=0;orthogonalLoop=1;jettySize=auto;html=1;" edge="1" parent="wQ1obBXAaNG1iILkcRS5-5" source="d6P8CkWaliifGmY5b4Fr-1" target="UEzPUAAOIrF-is8g5C7q-119">
          <mxGeometry relative="1" as="geometry" />
        </mxCell>
        <mxCell id="d6P8CkWaliifGmY5b4Fr-1" value="" style="outlineConnect=0;dashed=0;verticalLabelPosition=bottom;verticalAlign=top;align=center;html=1;shape=mxgraph.aws3.iam;fillColor=#759C3E;gradientColor=none;" vertex="1" parent="wQ1obBXAaNG1iILkcRS5-5">
          <mxGeometry x="588" y="78.5" width="42" height="81" as="geometry" />
        </mxCell>
        <mxCell id="d6P8CkWaliifGmY5b4Fr-6" style="edgeStyle=orthogonalEdgeStyle;rounded=0;orthogonalLoop=1;jettySize=auto;html=1;" edge="1" parent="wQ1obBXAaNG1iILkcRS5-5" source="d6P8CkWaliifGmY5b4Fr-4" target="UEzPUAAOIrF-is8g5C7q-113">
          <mxGeometry relative="1" as="geometry" />
        </mxCell>
        <mxCell id="d6P8CkWaliifGmY5b4Fr-4" value="" style="outlineConnect=0;dashed=0;verticalLabelPosition=bottom;verticalAlign=top;align=center;html=1;shape=mxgraph.aws3.iam;fillColor=#759C3E;gradientColor=none;" vertex="1" parent="wQ1obBXAaNG1iILkcRS5-5">
          <mxGeometry x="550" y="468.5" width="42" height="81" as="geometry" />
        </mxCell>
        <mxCell id="wQ1obBXAaNG1iILkcRS5-21" value="" style="edgeStyle=orthogonalEdgeStyle;rounded=0;orthogonalLoop=1;jettySize=auto;html=1;startArrow=none;startFill=0;" parent="1" source="UEzPUAAOIrF-is8g5C7q-115" target="UEzPUAAOIrF-is8g5C7q-121" edge="1">
          <mxGeometry relative="1" as="geometry">
            <Array as="points">
              <mxPoint x="599" y="210" />
              <mxPoint x="900" y="210" />
            </Array>
          </mxGeometry>
        </mxCell>
        <mxCell id="d6P8CkWaliifGmY5b4Fr-2" style="edgeStyle=orthogonalEdgeStyle;rounded=0;orthogonalLoop=1;jettySize=auto;html=1;" edge="1" parent="1" source="UEzPUAAOIrF-is8g5C7q-115" target="d6P8CkWaliifGmY5b4Fr-1">
          <mxGeometry relative="1" as="geometry" />
        </mxCell>
        <mxCell id="UEzPUAAOIrF-is8g5C7q-115" value="Processor" style="outlineConnect=0;fontColor=#232F3E;gradientColor=none;fillColor=#D05C17;strokeColor=none;dashed=0;verticalLabelPosition=bottom;verticalAlign=top;align=center;html=1;fontSize=12;fontStyle=0;aspect=fixed;pointerEvents=1;shape=mxgraph.aws4.lambda_function;labelBackgroundColor=#ffffff;" parent="1" vertex="1">
          <mxGeometry x="560" y="70" width="78" height="78" as="geometry" />
        </mxCell>
        <mxCell id="wQ1obBXAaNG1iILkcRS5-3" style="edgeStyle=orthogonalEdgeStyle;rounded=0;orthogonalLoop=1;jettySize=auto;html=1;" parent="1" source="UEzPUAAOIrF-is8g5C7q-116" edge="1">
          <mxGeometry relative="1" as="geometry">
            <mxPoint x="550" y="110" as="targetPoint" />
            <Array as="points">
              <mxPoint x="359" y="110" />
            </Array>
          </mxGeometry>
        </mxCell>
        <mxCell id="wQ1obBXAaNG1iILkcRS5-24" style="edgeStyle=orthogonalEdgeStyle;rounded=0;orthogonalLoop=1;jettySize=auto;html=1;startArrow=none;startFill=0;" parent="1" source="UEzPUAAOIrF-is8g5C7q-116" target="UEzPUAAOIrF-is8g5C7q-121" edge="1">
          <mxGeometry relative="1" as="geometry" />
        </mxCell>
        <mxCell id="UEzPUAAOIrF-is8g5C7q-116" value="Activities" style="outlineConnect=0;fontColor=#232F3E;gradientColor=#60A337;gradientDirection=north;fillColor=#277116;strokeColor=#ffffff;dashed=0;verticalLabelPosition=bottom;verticalAlign=top;align=center;html=1;fontSize=12;fontStyle=0;aspect=fixed;shape=mxgraph.aws4.resourceIcon;resIcon=mxgraph.aws4.s3;labelBackgroundColor=#ffffff;" parent="1" vertex="1">
          <mxGeometry x="320.0000000000002" y="250" width="78" height="78" as="geometry" />
        </mxCell>
        <mxCell id="wQ1obBXAaNG1iILkcRS5-2" style="edgeStyle=orthogonalEdgeStyle;rounded=0;orthogonalLoop=1;jettySize=auto;html=1;" parent="1" source="wQ1obBXAaNG1iILkcRS5-1" target="UEzPUAAOIrF-is8g5C7q-116" edge="1">
          <mxGeometry relative="1" as="geometry" />
        </mxCell>
        <mxCell id="wQ1obBXAaNG1iILkcRS5-1" value="Mentor" style="outlineConnect=0;dashed=0;verticalLabelPosition=bottom;verticalAlign=top;align=center;html=1;shape=mxgraph.aws3.user;fillColor=#D2D3D3;gradientColor=none;" parent="1" vertex="1">
          <mxGeometry x="90" y="257.5" width="45" height="63" as="geometry" />
        </mxCell>
        <mxCell id="qfB8jvTzvEuYYU5wCv9F-4" style="edgeStyle=orthogonalEdgeStyle;rounded=0;orthogonalLoop=1;jettySize=auto;html=1;" parent="1" source="wQ1obBXAaNG1iILkcRS5-16" target="qfB8jvTzvEuYYU5wCv9F-2" edge="1">
          <mxGeometry relative="1" as="geometry" />
        </mxCell>
        <mxCell id="wQ1obBXAaNG1iILkcRS5-16" value="ACB" style="outlineConnect=0;dashed=0;verticalLabelPosition=bottom;verticalAlign=top;align=center;html=1;shape=mxgraph.aws3.user;fillColor=#D2D3D3;gradientColor=none;" parent="1" vertex="1">
          <mxGeometry x="90" y="467.5" width="45" height="63" as="geometry" />
        </mxCell>
      </root>
    </mxGraphModel>
  </diagram>
</mxfile>
